<?xml version="1.0" encoding="UTF-8"?>
<svg xmlns="http://www.w3.org/2000/svg" xmlns:xlink="http://www.w3.org/1999/xlink" width="512px" height="512px" viewBox="0 0 512 512" version="1.1">
<g id="surface1">
<path style=" stroke:none;fill-rule:nonzero;fill:rgb(0%,0%,0%);fill-opacity:1;" d="M 256 256 L 320 256 L 320 320 L 256 320 Z M 256 256 "/>
<path style=" stroke:none;fill-rule:nonzero;fill:rgb(0%,0%,0%);fill-opacity:1;" d="M 192 256 L 192 192 L 256 192 L 256 256 Z M 192 256 "/>
<path style=" stroke:none;fill-rule:nonzero;fill:rgb(0%,0%,0%);fill-opacity:1;" d="M 192 256 L 192 320 L 128 320 L 128 256 Z M 192 256 "/>
<path style=" stroke:none;fill-rule:nonzero;fill:rgb(0%,0%,0%);fill-opacity:1;" d="M 384 128 L 320 128 L 320 192 L 384 192 Z M 384 128 "/>
<path style=" stroke:none;fill-rule:evenodd;fill:rgb(0%,0%,0%);fill-opacity:1;" d="M 0 0 L 0 512 L 512 512 L 512 0 Z M 448 448 L 320 448 L 320 384 L 384 384 L 384 320 L 448 320 Z M 320 320 L 384 320 L 384 256 L 448 256 L 448 64 L 64 64 L 64 320 L 128 320 L 128 384 L 64 384 L 64 448 L 256 448 L 256 384 L 320 384 Z M 320 320 "/>
</g>
</svg>
